<?xml version="1.0" standalone="no"?>
<!DOCTYPE svg PUBLIC "-//W3C//DTD SVG 20010904//EN"
 "http://www.w3.org/TR/2001/REC-SVG-20010904/DTD/svg10.dtd">
<svg version="1.0" xmlns="http://www.w3.org/2000/svg"
 width="1022.000000pt" height="1022.000000pt" viewBox="0 0 1022.000000 1022.000000"
 preserveAspectRatio="xMidYMid meet">
<metadata>
Created by potrace 1.14, written by Peter Selinger 2001-2017
</metadata>
<g transform="translate(0.000000,1022.000000) scale(0.100000,-0.100000)"
fill="#000000" stroke="none">
<path d="M5095 9728 l5 -493 -31 35 c-120 135 -305 379 -426 560 -93 141 -104
158 -175 278 -25 43 -54 80 -70 88 -39 20 -485 15 -498 -5 -9 -15 6 -78 23
-99 17 -22 61 -41 105 -46 23 -3 46 -7 50 -10 5 -3 10 -139 11 -303 3 -266 7
-519 10 -595 1 -17 6 -26 14 -23 6 2 39 6 72 10 33 3 90 8 128 12 37 3 68 11
68 17 1 6 2 147 3 313 0 166 3 303 6 306 3 3 30 -32 60 -76 272 -402 434 -578
616 -670 84 -42 157 -57 269 -53 146 6 140 3 139 67 -2 108 -3 111 -21 105
-42 -12 -73 -14 -79 -4 -8 13 -12 200 -15 701 l-2 377 -134 0 -134 0 6 -492z"/>
<path d="M6271 10043 c-7 -16 -56 -131 -108 -258 -52 -126 -110 -266 -128
-310 -154 -366 -158 -377 -138 -395 10 -10 95 -69 188 -132 192 -130 319 -196
450 -234 304 -87 509 12 634 306 13 30 48 85 79 122 46 55 68 98 132 255 43
103 75 191 72 194 -9 8 -1149 479 -1160 479 -5 0 -14 -12 -21 -27z m518 -388
c166 -69 306 -125 311 -125 15 0 13 -8 -22 -97 -18 -46 -38 -83 -44 -83 -10 0
-615 248 -623 256 -7 6 64 174 73 174 2 0 139 -56 305 -125z m-214 -360 c88
-36 194 -81 236 -98 74 -31 76 -33 72 -62 -12 -76 -65 -145 -136 -175 -94 -41
-235 -11 -442 92 -55 27 -101 51 -103 53 -2 2 41 111 83 210 10 22 21 50 26
62 l8 23 48 -19 c27 -10 120 -49 208 -86z"/>
<path d="M3110 9903 c-67 -23 -191 -68 -217 -79 -31 -12 -32 -15 -22 -41 6
-15 28 -75 49 -133 20 -58 96 -266 169 -463 72 -197 131 -362 131 -367 0 -16
25 -12 92 14 35 14 91 35 126 47 34 12 62 23 62 24 0 2 -23 66 -51 142 -28 76
-68 185 -89 243 -87 244 -192 527 -205 558 -8 18 -15 39 -15 47 0 16 -5 17
-30 8z"/>
<path d="M1985 9359 c-115 -83 -222 -158 -236 -167 -63 -41 -189 -136 -189
-142 0 -4 16 -23 35 -43 26 -27 44 -37 67 -37 35 0 133 56 296 170 l112 79 38
-52 c125 -171 252 -375 260 -417 30 -163 -127 -372 -435 -578 l-92 -62 46 -78
c25 -42 47 -78 48 -80 2 -3 100 48 169 87 110 63 273 186 351 265 68 69 130
155 168 234 33 68 41 98 45 157 8 139 -16 197 -179 426 -57 80 -142 200 -189
267 -47 66 -89 121 -95 121 -5 0 -104 -68 -220 -150z"/>
<path d="M8127 9087 c-26 -29 -164 -169 -306 -312 -156 -157 -267 -277 -280
-302 -27 -54 -27 -124 -1 -178 14 -28 121 -141 319 -336 164 -162 313 -307
330 -324 l32 -30 84 45 c47 25 85 48 85 52 0 4 -137 144 -306 310 l-305 302
78 76 c43 41 86 81 95 88 15 12 46 -15 262 -229 135 -134 259 -251 274 -261
70 -44 177 -36 235 17 l28 27 -316 311 -316 312 68 67 68 68 175 -171 c96 -94
234 -229 306 -300 l131 -130 118 113 118 114 -44 34 c-24 19 -46 37 -49 40
-17 19 -109 90 -116 90 -4 0 -23 -17 -41 -37 l-34 -38 -313 318 c-172 174
-317 317 -322 316 -5 0 -31 -23 -57 -52z"/>
<path d="M4899 8643 c0 -16 -2 -50 -4 -78 -10 -116 -15 -198 -21 -321 -6 -118
-5 -135 12 -163 43 -72 195 -109 277 -67 61 30 84 84 92 211 4 55 8 118 10
140 2 22 6 87 10 145 4 57 8 107 11 111 9 16 -26 24 -95 24 -58 0 -74 -3 -76
-15 -1 -8 -6 -69 -9 -135 -4 -66 -9 -138 -11 -160 -3 -22 -7 -76 -10 -119 -6
-85 -18 -114 -41 -95 -8 6 -11 25 -9 47 4 33 9 107 21 287 2 33 6 92 9 130 l5
71 -37 2 c-21 2 -59 5 -85 7 -47 5 -48 4 -49 -22z"/>
<path d="M4310 8629 c-19 -4 -53 -10 -75 -13 -22 -4 -80 -14 -128 -22 l-89
-16 7 -47 c11 -81 11 -81 60 -74 40 5 45 3 54 -18 5 -13 26 -123 47 -244 20
-121 40 -223 43 -227 4 -5 42 -2 84 4 l78 13 -6 50 c-4 27 -13 82 -20 120 -8
39 -16 86 -19 105 -8 51 -15 89 -26 143 -18 87 -16 94 35 101 l45 7 -5 40
c-12 93 -12 93 -85 78z"/>
<path d="M5817 8508 c-2 -13 -48 -149 -100 -303 -52 -154 -93 -283 -91 -287 6
-10 255 -87 289 -90 47 -2 74 11 92 45 14 27 79 200 87 232 1 6 18 57 36 114
32 98 33 106 19 145 -11 34 -23 45 -64 66 -77 38 -234 100 -254 100 -5 0 -11
-10 -14 -22z m173 -170 c0 -26 -114 -344 -129 -360 -10 -11 -21 -14 -29 -9
-14 8 -2 50 88 308 29 83 34 91 51 82 11 -5 19 -15 19 -21z"/>
<path d="M3388 8375 c-58 -15 -109 -46 -143 -86 -34 -42 -33 -96 4 -175 41
-87 72 -105 216 -128 59 -10 88 -28 110 -69 16 -28 18 -41 9 -54 -19 -31 -37
-20 -67 39 -23 46 -32 56 -46 49 -9 -4 -37 -18 -63 -30 -27 -13 -50 -27 -53
-31 -3 -5 11 -36 31 -70 53 -91 106 -110 219 -80 66 18 145 98 145 148 0 37
-60 168 -90 197 -22 21 -49 31 -131 47 -101 20 -131 34 -150 70 -12 23 6 59
25 52 7 -3 22 -21 32 -40 10 -19 19 -34 20 -34 12 0 134 63 134 69 0 19 -54
103 -74 116 -31 20 -75 23 -128 10z"/>
<path d="M6623 8087 c-146 -236 -285 -468 -282 -471 2 -2 34 -22 71 -44 49
-30 69 -38 76 -29 5 7 82 130 170 275 l161 263 -52 33 c-98 62 -87 65 -144
-27z"/>
<path d="M740 7808 c-40 -48 -85 -113 -124 -180 l-28 -48 61 30 c33 17 65 30
70 30 28 0 51 41 51 90 0 28 7 66 14 85 21 49 0 46 -44 -7z"/>
<path d="M9180 7598 c-124 -71 -247 -142 -275 -157 -27 -15 -61 -34 -75 -43
-14 -9 -52 -31 -85 -49 -170 -95 -255 -144 -255 -149 0 -15 140 -245 148 -243
13 3 904 512 915 522 9 9 -122 243 -138 247 -6 2 -111 -56 -235 -128z"/>
<path d="M7235 7700 c-16 -4 -39 -11 -50 -17 -19 -10 -171 -162 -264 -263 -81
-87 -80 -171 3 -258 71 -76 152 -91 227 -44 51 33 276 269 300 314 37 71 -2
179 -84 233 -39 25 -101 42 -132 35z m85 -159 c0 -19 -248 -284 -283 -303 -24
-12 -43 3 -30 26 17 30 285 296 299 296 8 0 14 -8 14 -19z"/>
<path d="M580 7422 c-85 -60 -96 -73 -117 -122 -41 -101 -125 -334 -174 -485
-26 -82 -53 -163 -58 -179 -6 -16 -8 -32 -6 -36 6 -10 123 -12 129 -2 5 9 9
25 21 97 31 184 83 297 189 410 72 76 94 116 101 181 6 56 12 115 19 177 2 15
1 27 -3 27 -3 0 -49 -31 -101 -68z"/>
<path d="M592 6906 c-45 -76 -81 -176 -89 -249 -10 -87 -10 -90 7 -92 112 -18
109 -18 108 1 0 11 3 103 6 207 4 103 6 187 4 187 -2 0 -18 -25 -36 -54z"/>
<path d="M199 6440 c-16 -9 -27 -42 -52 -156 l-14 -61 99 1 c113 2 237 -13
351 -42 l78 -20 -5 31 c-3 18 -8 59 -12 91 -3 33 -8 67 -9 75 -2 9 -4 21 -4
28 -2 33 -387 81 -432 53z"/>
<path d="M160 6082 c-19 -2 -38 -6 -42 -10 -7 -7 -14 -57 -23 -160 l-5 -63 63
7 c120 15 245 5 347 -26 36 -11 66 -20 67 -20 3 0 72 146 84 178 7 19 5 24
-19 33 -131 53 -322 77 -472 61z"/>
<path d="M8408 5851 c-49 -7 -88 -17 -88 -20 0 -14 217 -78 233 -70 14 9 77
93 77 105 0 9 -132 0 -222 -15z"/>
<path d="M8771 5813 c-24 -26 -74 -94 -111 -150 -65 -98 -68 -102 -84 -84 -42
46 -193 109 -318 131 -72 13 -229 17 -306 7 -228 -29 -455 -136 -595 -279
-162 -167 -317 -490 -317 -659 0 -67 -11 -61 110 -61 121 0 115 -2 117 36 3
61 42 207 74 274 111 240 343 413 624 467 50 9 176 7 246 -4 70 -11 148 -35
237 -70 30 -12 58 -19 63 -16 13 9 11 -5 -10 -68 -35 -102 -62 -250 -68 -371
l-6 -119 34 7 c19 4 41 9 49 11 8 3 38 10 65 16 28 6 55 16 62 23 6 6 14 40
17 76 15 146 33 225 77 342 60 158 146 286 277 415 46 46 78 84 73 84 -6 1
-14 2 -18 3 -5 1 -30 5 -56 10 -27 4 -56 9 -66 11 -9 2 -42 6 -72 10 l-56 7
-42 -49z"/>
<path d="M682 5698 c-18 -57 -35 -121 -38 -143 -3 -22 -7 -42 -9 -45 -12 -20
-25 -254 -14 -271 6 -10 30 -6 104 14 54 14 99 28 101 30 7 6 13 45 20 112 3
33 7 70 9 81 2 13 -11 41 -30 69 -20 27 -47 90 -67 151 -18 57 -35 104 -39
104 -3 0 -20 -46 -37 -102z"/>
<path d="M9173 5712 c-188 -158 -311 -360 -363 -597 -15 -68 -23 -185 -13
-186 34 -4 196 -3 203 1 4 3 11 27 15 54 37 253 155 450 347 584 l57 39 -42
50 c-23 28 -56 59 -72 70 -58 39 -68 38 -132 -15z"/>
<path d="M218 5724 c-2 -1 -27 -4 -57 -7 -30 -3 -58 -11 -62 -19 -5 -7 -9 -46
-9 -86 0 -65 2 -73 18 -68 85 25 226 24 313 -4 35 -11 67 -20 70 -20 5 0 13
35 19 82 1 4 5 21 10 38 8 27 6 32 -18 44 -48 25 -115 38 -199 41 -46 1 -84 1
-85 -1z"/>
<path d="M7123 5510 c-95 -32 -185 -67 -200 -78 -69 -49 -196 -356 -219 -527
-3 -27 -8 -59 -10 -70 -8 -38 -14 -215 -8 -215 15 0 200 53 206 59 4 3 10 33
13 66 16 164 65 337 133 468 47 92 150 233 221 301 23 22 41 43 41 48 0 4 -1
8 -2 7 -2 0 -81 -27 -175 -59z"/>
<path d="M9444 5456 c-96 -65 -184 -171 -236 -286 -36 -80 -44 -110 -54 -210
l-6 -56 79 -15 79 -15 12 84 c21 157 97 277 227 362 36 23 65 45 65 48 0 5
-62 83 -86 107 -21 20 -22 20 -80 -19z"/>
<path d="M170 5417 c-46 -12 -59 -24 -55 -50 2 -12 6 -44 10 -70 5 -40 9 -47
23 -41 9 3 35 13 57 21 79 29 196 -8 240 -76 11 -17 24 -31 28 -31 14 0 6 173
-9 197 -28 44 -203 74 -294 50z"/>
<path d="M979 5393 c-1 -21 -2 -50 -3 -65 l-3 -28 109 0 c91 0 110 3 115 16
11 29 -10 45 -92 73 -137 48 -125 48 -126 4z"/>
<path d="M7970 5338 c-147 -22 -280 -95 -392 -217 -90 -97 -145 -209 -164
-332 -16 -106 -18 -102 61 -120 39 -8 75 -13 81 -11 6 2 10 15 9 30 -4 47 23
151 55 217 35 73 113 155 192 203 147 88 263 97 474 36 24 -6 27 0 50 123 6
34 9 31 -71 52 -95 25 -208 32 -295 19z"/>
<path d="M6640 5284 c-19 -13 -38 -24 -42 -24 -3 0 -19 -5 -35 -11 l-28 -11
45 -14 c25 -7 49 -14 53 -14 8 0 50 90 45 95 -2 2 -19 -8 -38 -21z"/>
<path d="M9642 5228 c-52 -27 -136 -121 -164 -185 -39 -89 -35 -233 7 -233 8
0 42 -13 75 -29 33 -16 60 -28 60 -26 0 1 -7 19 -15 38 -25 61 -20 158 11 220
23 44 62 77 122 104 39 17 51 27 45 36 -53 69 -78 97 -87 97 -6 0 -30 -10 -54
-22z"/>
<path d="M995 5162 c-256 -22 -527 -121 -711 -260 -43 -34 -51 -45 -67 -102
-27 -100 -68 -311 -61 -321 3 -5 27 17 53 49 169 202 469 371 708 398 104 11
142 25 313 110 93 47 170 103 144 105 -5 0 -18 2 -29 5 -41 8 -302 21 -350 16z"/>
<path d="M208 5135 c-35 -19 -43 -49 -28 -95 l13 -38 78 50 c44 28 79 54 79
58 0 16 -50 40 -82 40 -18 -1 -45 -7 -60 -15z"/>
<path d="M6337 5097 c-12 -13 -30 -34 -41 -48 -10 -13 -34 -40 -53 -60 l-35
-37 89 5 c70 4 106 1 176 -17 49 -12 90 -20 91 -18 2 1 10 36 18 76 l16 73
-27 10 c-52 20 -136 39 -174 39 -27 0 -44 -7 -60 -23z"/>
<path d="M8000 5035 c-110 -23 -173 -66 -231 -156 -62 -97 -87 -226 -52 -267
17 -19 143 -76 151 -68 2 3 -2 14 -8 26 -6 11 -14 49 -17 84 -4 50 -1 71 16
108 41 90 146 154 237 144 87 -10 134 -36 172 -96 l22 -35 1 35 c4 108 -1 163
-16 180 -38 42 -182 65 -275 45z"/>
<path d="M9790 4991 c-37 -10 -73 -69 -66 -106 4 -16 10 -33 14 -36 4 -4 45
17 91 48 82 54 84 55 65 74 -22 22 -68 31 -104 20z"/>
<path d="M9889 4778 c-123 -82 -296 -254 -375 -373 -96 -146 -164 -297 -203
-450 -28 -112 -31 -134 -38 -274 -5 -104 -4 -123 8 -119 8 3 55 15 104 28 50
12 93 25 96 29 4 3 10 40 13 81 3 41 8 86 11 100 21 109 31 146 61 226 82 222
214 391 417 536 53 38 97 75 97 82 0 20 -76 190 -86 193 -6 2 -53 -25 -105
-59z"/>
<path d="M6282 4819 c-100 -13 -184 -66 -263 -166 -38 -49 -70 -197 -55 -257
5 -21 64 -54 163 -93 8 -3 5 12 -8 42 -34 76 -24 172 23 241 49 72 162 116
244 95 48 -12 110 -47 133 -75 7 -9 17 -16 21 -16 9 0 7 161 -3 176 -10 16
-115 53 -162 57 -22 2 -64 0 -93 -4z"/>
<path d="M8847 4784 c-1 -1 -33 -4 -71 -8 -467 -44 -910 -350 -1109 -766 -64
-136 -118 -312 -134 -442 -9 -68 -10 -215 -2 -222 5 -5 198 41 207 49 2 1 5
27 7 56 9 117 16 157 39 239 30 107 58 178 103 260 115 208 293 379 504 485
291 147 605 168 921 60 l73 -25 24 27 c62 74 114 143 110 147 -2 2 -42 19 -89
38 -162 68 -311 99 -497 102 -46 0 -85 1 -86 0z"/>
<path d="M8028 4754 c-34 -18 -48 -43 -48 -86 0 -62 10 -61 104 1 l88 59 -30
21 c-35 24 -76 26 -114 5z"/>
<path d="M572 4661 c-117 -70 -175 -122 -269 -241 -94 -118 -143 -206 -138
-247 2 -16 6 -55 10 -88 8 -78 13 -118 20 -153 3 -15 8 -47 11 -72 8 -57 8
-57 44 -62 25 -4 31 -1 35 16 76 358 154 485 389 637 38 24 73 47 78 50 12 8
-73 209 -88 209 -6 0 -47 -22 -92 -49z"/>
<path d="M4965 4698 c-15 -43 -31 -280 -20 -298 3 -4 50 4 104 17 109 28 106
25 115 113 2 19 7 63 11 98 4 34 3 62 -2 63 -4 0 -19 2 -33 4 -115 14 -171 15
-175 3z"/>
<path d="M5333 4662 c-16 -10 -31 -86 -29 -148 l1 -47 103 0 c57 1 105 3 108
5 4 5 17 104 18 148 1 21 -5 25 -39 32 -79 14 -150 19 -162 10z"/>
<path d="M4130 4589 c-63 -16 -120 -35 -127 -42 -7 -7 -19 -29 -28 -50 -17
-42 -22 -38 67 -61 l58 -14 26 31 c38 48 46 57 87 115 21 28 37 52 35 51 -1 0
-55 -14 -118 -30z"/>
<path d="M5676 4596 c-3 -12 -8 -49 -12 -83 l-6 -61 53 -11 c105 -21 103 -22
110 34 4 28 9 65 12 83 6 38 7 38 -85 50 -63 8 -67 7 -72 -12z"/>
<path d="M4498 4581 c-111 -28 -191 -89 -238 -182 -12 -22 -18 -44 -15 -48 3
-5 27 -25 54 -44 l49 -36 28 54 c43 85 116 128 221 127 77 -1 130 -26 172 -84
l32 -43 -3 105 -3 105 -47 22 c-80 39 -160 46 -250 24z"/>
<path d="M7065 4563 c-343 -35 -642 -178 -890 -427 -61 -61 -132 -144 -159
-184 -144 -219 -219 -452 -233 -725 l-6 -118 24 6 c193 45 198 47 200 95 4
117 39 276 86 394 97 238 233 400 463 549 252 163 564 221 874 162 15 -3 71
-19 122 -36 52 -16 98 -28 103 -25 21 13 131 170 124 176 -13 12 -178 68 -260
89 -76 19 -102 24 -193 36 -55 7 -214 12 -255 8z"/>
<path d="M6293 4540 c-31 -13 -55 -53 -56 -95 -2 -59 12 -59 103 1 47 31 86
57 88 59 1 1 -8 9 -21 18 -31 20 -86 29 -114 17z"/>
<path d="M3815 4496 c-16 -7 -54 -24 -82 -36 -37 -16 -53 -29 -53 -42 0 -16 6
-18 48 -13 105 13 107 14 132 79 11 30 1 33 -45 12z"/>
<path d="M10039 4438 c-172 -139 -277 -282 -350 -481 -30 -82 -59 -222 -59
-287 l0 -36 105 0 104 0 22 95 c45 205 97 311 209 435 l62 69 -6 106 c-3 58
-5 116 -6 129 0 12 -4 22 -8 22 -4 0 -37 -23 -73 -52z"/>
<path d="M8769 4419 c-337 -52 -655 -287 -788 -581 -52 -114 -100 -306 -97
-390 l1 -33 99 0 c65 0 104 4 112 12 7 7 18 45 24 85 23 138 77 274 142 358
99 128 257 238 425 296 66 23 98 27 208 30 112 2 143 -1 224 -22 51 -13 96
-24 100 -24 6 0 62 119 87 185 7 18 -129 64 -241 81 -68 10 -240 12 -296 3z"/>
<path d="M755 4351 c-177 -102 -324 -342 -325 -528 l0 -42 58 -11 c31 -6 67
-13 80 -16 20 -4 22 -1 22 33 0 60 28 161 61 223 38 71 119 157 185 195 27 15
51 29 52 31 7 5 -63 143 -73 144 -5 0 -32 -13 -60 -29z"/>
<path d="M5289 4326 c-2 -2 -31 -7 -64 -11 -130 -14 -315 -74 -445 -143 -180
-96 -364 -252 -478 -407 -108 -147 -207 -374 -248 -570 -24 -112 -30 -305 -11
-305 15 0 198 47 202 52 1 1 5 35 8 74 15 170 84 386 168 525 68 112 206 268
280 317 15 9 48 32 73 50 63 45 205 115 296 145 125 42 267 61 399 54 136 -7
144 -8 281 -49 58 -17 115 -33 127 -35 17 -4 34 11 86 78 36 46 64 86 61 90
-6 10 -150 70 -209 86 -114 32 -263 51 -391 52 -73 0 -133 -2 -135 -3z"/>
<path d="M4538 4304 c-34 -18 -48 -43 -48 -86 0 -61 10 -62 98 -3 45 31 82 60
82 65 0 29 -91 46 -132 24z"/>
<path d="M7066 4188 c-173 -15 -355 -86 -497 -193 -261 -196 -400 -440 -425
-750 l-6 -70 108 0 108 0 17 95 c47 258 158 428 370 567 193 126 428 163 649
104 41 -11 78 -21 82 -21 7 0 35 55 79 158 l19 43 -24 9 c-52 19 -203 51 -270
56 -39 3 -82 6 -96 8 -14 1 -65 -2 -114 -6z"/>
<path d="M905 4093 c-91 -49 -175 -197 -176 -309 -1 -71 11 -88 83 -114 35
-12 68 -25 75 -27 8 -3 7 9 -4 38 -42 123 3 233 125 302 l42 24 -22 24 c-13
14 -31 37 -41 52 -20 31 -39 33 -82 10z"/>
<path d="M8897 4064 c-1 -1 -24 -4 -52 -7 -194 -21 -369 -122 -471 -273 -93
-136 -159 -351 -118 -384 7 -7 14 -10 14 -7 0 3 28 -1 61 -9 34 -8 63 -13 65
-11 2 2 6 28 9 58 19 181 123 333 283 413 137 68 261 76 406 26 l54 -18 11 61
c7 34 14 70 17 79 6 20 -15 31 -106 53 -47 12 -166 25 -173 19z"/>
<path d="M5367 3974 c-1 -1 -34 -5 -72 -8 -192 -17 -413 -120 -565 -263 -164
-154 -257 -310 -310 -517 -21 -84 -35 -216 -23 -217 4 0 52 -1 106 -2 93 -2
109 2 113 28 1 6 4 30 8 55 23 171 101 328 225 450 209 208 482 291 751 230
52 -12 104 -24 115 -27 17 -4 26 10 63 93 23 53 41 99 38 101 -11 11 -148 52
-211 62 -61 10 -231 21 -238 15z"/>
<path d="M1048 3853 c-32 -20 -39 -34 -43 -84 -6 -66 5 -67 105 -2 l92 60 -44
22 c-53 25 -74 26 -110 4z"/>
<path d="M7030 3824 c-278 -61 -496 -305 -526 -590 l-6 -62 49 -10 c116 -26
109 -27 111 15 7 124 64 252 152 340 139 138 327 189 514 139 28 -7 57 -15 65
-17 14 -4 22 19 37 101 3 19 8 38 10 42 3 4 -26 17 -63 29 -85 27 -249 33
-343 13z"/>
<path d="M8850 3755 c-90 -17 -131 -37 -190 -95 -67 -66 -108 -153 -114 -242
-3 -38 -3 -74 0 -82 5 -12 138 -76 158 -76 3 0 -1 19 -9 41 -34 95 -8 199 64
261 46 40 132 71 174 63 15 -3 38 -7 51 -9 43 -8 86 -36 117 -78 l30 -42 -3
104 -3 104 -53 26 c-30 15 -74 27 -100 29 -25 1 -48 3 -51 5 -3 2 -35 -2 -71
-9z"/>
<path d="M1199 3661 c-158 -104 -197 -135 -274 -222 -131 -146 -225 -297 -294
-476 l-20 -51 27 -40 c45 -66 137 -181 143 -182 4 0 10 17 14 37 24 128 120
343 205 459 59 79 172 190 251 246 77 55 211 127 297 159 54 21 79 39 54 39
-4 0 -54 27 -110 60 -62 37 -112 60 -130 60 -21 0 -71 -28 -163 -89z"/>
<path d="M255 3627 c12 -56 55 -186 63 -191 5 -3 27 -7 51 -10 24 -3 66 -12
94 -20 104 -30 210 -57 212 -54 2 2 33 41 69 87 l66 84 -43 19 c-125 57 -313
104 -450 113 l-68 4 6 -32z"/>
<path d="M3950 3608 c-58 -16 -140 -38 -182 -49 -84 -23 -98 -33 -45 -35 64
-2 133 -13 197 -33 35 -11 65 -19 67 -18 6 6 73 160 71 162 -2 1 -50 -11 -108
-27z"/>
<path d="M5266 3590 c-195 -44 -369 -189 -451 -375 -32 -72 -68 -245 -54 -261
9 -11 137 -39 144 -32 1 2 6 28 9 58 24 210 155 374 354 443 82 28 244 28 328
0 l62 -20 11 56 c6 31 14 65 17 77 5 17 -2 23 -38 37 -66 25 -95 30 -203 32
-67 2 -126 -3 -179 -15z"/>
<path d="M7047 3518 c-122 -46 -228 -171 -243 -284 -15 -120 -8 -139 70 -174
34 -15 73 -31 86 -35 23 -7 24 -7 8 16 -18 28 -31 82 -30 124 4 132 113 240
239 237 65 -2 139 -32 175 -73 14 -16 28 -26 31 -22 6 11 1 172 -5 179 -4 3
-32 16 -64 29 -73 30 -195 31 -267 3z"/>
<path d="M1710 3498 c-233 -50 -460 -199 -599 -395 -116 -163 -181 -325 -198
-493 -5 -50 -2 -61 17 -80 19 -19 31 -21 98 -19 42 2 82 4 88 7 7 2 15 29 19
60 7 62 21 125 34 157 5 11 20 48 34 82 54 134 145 241 286 335 163 110 268
143 461 142 114 -1 147 -5 217 -26 l81 -25 42 91 c23 50 44 96 47 102 7 18
-78 34 -262 49 -80 7 -124 13 -160 25 -40 13 -110 9 -205 -12z"/>
<path d="M9585 3489 c-188 -25 -319 -65 -474 -145 -241 -126 -459 -345 -590
-595 -65 -122 -119 -286 -136 -407 -3 -20 -8 -48 -10 -62 -10 -57 -15 -160 -8
-160 26 0 84 49 149 126 23 27 54 62 68 79 14 16 35 61 46 100 31 105 78 218
117 282 153 255 398 441 695 527 84 24 110 29 203 41 53 7 62 14 155 124 25
30 51 59 58 67 29 30 13 35 -105 32 -65 -1 -140 -5 -168 -9z"/>
<path d="M3387 3484 c-1 -1 -42 -5 -92 -8 -49 -3 -126 -9 -170 -12 -162 -10
-150 -5 -234 -109 -141 -173 -217 -366 -235 -595 l-4 -45 111 1 112 1 2 34
c12 171 97 367 215 495 40 43 150 134 162 134 3 0 27 13 53 28 26 15 76 39
111 51 34 13 62 25 62 27 0 3 -89 1 -93 -2z"/>
<path d="M8868 3474 c-34 -18 -48 -43 -48 -86 0 -61 10 -62 98 -3 45 31 82 59
82 64 0 12 -63 41 -87 41 -10 -1 -30 -7 -45 -16z"/>
<path d="M2540 3460 c-31 -4 -39 -12 -72 -75 -75 -141 -137 -317 -152 -430 -4
-27 -9 -63 -11 -80 -10 -67 -14 -215 -5 -215 19 0 194 50 202 58 5 5 11 26 13
48 21 182 28 214 65 326 37 110 74 184 145 288 30 44 55 82 55 83 0 4 -207 2
-240 -3z"/>
<path d="M3585 3383 c-240 -35 -467 -226 -535 -453 -23 -75 -41 -192 -31 -202
9 -10 143 -39 149 -33 3 3 7 26 8 50 6 115 68 247 153 328 152 144 330 186
534 123 26 -8 49 -11 51 -8 5 8 26 120 26 138 0 37 -232 75 -355 57z"/>
<path d="M5316 3293 c-99 -30 -179 -99 -226 -198 -31 -66 -49 -180 -33 -210 8
-14 163 -91 163 -81 0 2 -7 23 -15 46 -8 23 -15 66 -15 94 1 138 149 253 285
221 78 -18 105 -35 141 -90 l19 -29 5 64 c3 36 3 82 1 104 -3 36 -7 40 -60 64
-68 32 -188 39 -265 15z"/>
<path d="M392 3281 c-6 -3 17 -53 49 -110 33 -57 59 -107 59 -112 0 -28 21 2
57 81 l41 89 -56 16 c-32 9 -76 22 -99 29 -23 7 -46 10 -51 7z"/>
<path d="M7899 3276 c-2 -2 -33 -7 -69 -10 -36 -4 -100 -16 -142 -27 -406
-103 -734 -362 -914 -719 -65 -131 -117 -287 -139 -420 -11 -69 -18 -270 -9
-270 22 1 197 49 204 57 5 4 11 42 14 83 6 80 9 101 31 196 45 195 172 413
324 557 76 71 243 186 326 222 78 35 242 85 325 100 147 26 336 9 545 -50 l90
-25 23 27 c12 16 43 54 67 85 l46 57 -56 25 c-93 43 -235 85 -341 101 -45 7
-320 16 -325 11z"/>
<path d="M7123 3249 c-38 -24 -57 -67 -48 -109 5 -24 11 -30 23 -25 28 10 162
99 162 107 0 13 -46 38 -77 42 -18 3 -42 -4 -60 -15z"/>
<path d="M1880 3159 c-86 -8 -194 -40 -260 -76 -190 -106 -329 -313 -347 -515
l-5 -67 28 -7 c16 -3 45 -10 64 -15 64 -16 67 -15 73 55 19 197 146 360 342
437 83 32 251 33 338 1 42 -16 59 -18 62 -9 2 7 8 35 15 62 6 28 13 57 16 66
5 19 -40 40 -126 58 -75 16 -112 17 -200 10z"/>
<path d="M9460 3099 c-88 -24 -202 -77 -285 -133 -84 -57 -222 -198 -275 -281
-47 -72 -104 -184 -98 -190 5 -6 299 206 408 293 100 81 330 305 330 322 0 6
-1 10 -2 9 -2 0 -37 -9 -78 -20z"/>
<path d="M3588 3075 c-157 -43 -263 -180 -273 -355 -4 -67 4 -79 80 -111 110
-46 106 -46 81 3 -42 84 -23 200 44 267 43 42 81 61 140 68 69 8 132 -12 185
-59 l45 -40 1 29 c3 59 1 134 -5 149 -18 46 -198 76 -298 49z"/>
<path d="M6149 3046 c-2 -2 -31 -6 -64 -10 -225 -24 -517 -149 -704 -301 -254
-208 -444 -542 -495 -875 -11 -70 -18 -263 -10 -258 5 3 53 15 106 28 108 24
104 21 113 115 23 236 104 442 248 625 72 92 99 119 209 207 107 87 179 126
326 179 139 51 212 66 340 70 147 5 303 -19 461 -72 24 -8 51 -12 60 -9 9 3
41 40 73 83 65 89 68 82 -57 130 -95 37 -171 57 -295 78 -37 6 -305 15 -311
10z"/>
<path d="M5390 3029 c-38 -15 -60 -49 -60 -96 0 -23 4 -44 10 -48 8 -5 180 99
180 109 0 5 -60 32 -85 39 -11 3 -31 1 -45 -4z"/>
<path d="M7834 2885 c-212 -37 -378 -121 -527 -264 -190 -182 -304 -418 -323
-665 l-6 -73 110 0 110 0 6 55 c23 198 113 381 247 507 230 216 532 283 836
187 l32 -10 44 101 45 102 -45 17 c-104 39 -178 52 -318 54 -77 1 -172 -4
-211 -11z"/>
<path d="M1882 2858 c-149 -23 -282 -152 -309 -304 -10 -54 -6 -113 8 -131 13
-14 140 -66 147 -59 2 3 -1 19 -8 36 -20 49 -16 139 8 186 41 80 127 135 211
135 88 0 132 -20 184 -83 l36 -43 -2 97 c-2 110 -11 127 -79 148 -83 24 -127
28 -196 18z"/>
<path d="M4400 2827 c-3 -2 -30 -7 -60 -10 -208 -19 -494 -144 -698 -305 -246
-194 -412 -475 -481 -817 -11 -54 -19 -100 -18 -102 5 -5 148 -19 184 -19 33
1 37 4 40 31 18 141 101 354 186 479 89 131 281 302 440 390 63 35 246 100
311 110 20 3 53 9 74 12 67 11 195 10 287 -3 113 -15 122 -17 219 -48 43 -14
87 -25 96 -25 15 0 66 56 143 157 7 9 -4 18 -39 33 -90 39 -266 90 -359 105
-54 8 -319 18 -325 12z"/>
<path d="M3632 2803 c-32 -13 -54 -99 -33 -132 8 -12 25 -4 90 38 45 30 81 57
81 62 0 28 -94 50 -138 32z"/>
<path d="M6130 2678 c-30 -4 -75 -12 -100 -18 -25 -6 -52 -12 -61 -14 -38 -10
-171 -70 -225 -102 -188 -113 -333 -272 -419 -457 -45 -97 -83 -246 -87 -338
l-3 -73 108 -1 c59 0 107 2 107 6 0 3 7 44 15 90 42 240 163 424 361 552 92
59 152 86 254 113 111 30 272 28 403 -5 49 -13 90 -21 91 -19 12 14 77 164 79
181 2 22 5 20 -123 55 -121 33 -285 45 -400 30z"/>
<path d="M2649 2596 c-2 -2 -31 -7 -63 -11 -205 -23 -462 -128 -639 -261 -89
-67 -220 -198 -280 -282 l-36 -51 96 -51 96 -52 41 48 c127 151 299 278 473
351 114 47 151 57 278 77 77 13 303 14 355 2 14 -4 39 -9 55 -11 17 -3 72 -19
123 -36 52 -17 99 -28 105 -26 7 3 40 41 75 85 l62 81 -27 14 c-72 36 -231 87
-313 101 -19 3 -46 9 -60 12 -28 7 -335 16 -341 10z"/>
<path d="M1880 2561 c-31 -25 -35 -34 -34 -75 1 -26 4 -49 7 -52 6 -6 177 102
177 111 0 12 -67 45 -90 45 -14 0 -41 -13 -60 -29z"/>
<path d="M7948 2555 c-1 -1 -23 -5 -48 -8 -25 -3 -75 -16 -112 -30 -249 -90
-432 -327 -441 -568 -2 -60 -1 -64 21 -67 15 -2 44 11 78 34 44 30 56 45 65
78 44 176 177 318 350 377 110 37 215 33 368 -12 10 -3 19 17 31 72 l17 77
-76 22 c-64 20 -240 37 -253 25z"/>
<path d="M4458 2464 c-2 -1 -28 -5 -58 -8 -169 -18 -363 -93 -488 -190 -142
-109 -226 -214 -315 -391 -52 -105 -71 -165 -93 -296 -7 -43 -5 -44 133 -54
l81 -6 12 57 c56 268 206 461 455 586 175 88 373 104 572 47 37 -10 68 -17 70
-16 13 13 90 194 85 199 -11 11 -177 56 -234 64 -53 6 -216 13 -220 8z"/>
<path d="M1110 2368 c0 -5 183 -163 215 -186 50 -36 116 -82 146 -100 l36 -22
71 89 71 89 -57 25 c-79 35 -170 65 -255 83 -76 16 -227 30 -227 22z"/>
<path d="M6150 2316 c-81 -17 -231 -77 -284 -114 -50 -35 -143 -143 -184 -213
-41 -73 -81 -198 -84 -267 l-3 -57 73 -14 c40 -7 74 -12 76 -10 2 2 7 31 11
63 23 202 159 369 356 437 86 30 226 30 319 0 35 -11 65 -19 66 -18 4 4 34
150 31 152 -10 7 -92 36 -114 40 -63 14 -201 14 -263 1z"/>
<path d="M7890 2238 c-113 -42 -192 -126 -236 -250 -12 -34 -12 -38 4 -38 43
1 137 30 149 47 43 58 58 72 101 94 88 44 195 32 274 -33 15 -12 31 -19 34
-15 4 4 8 38 9 77 2 83 -2 89 -97 117 -87 26 -168 26 -238 1z"/>
<path d="M2635 2230 c-175 -28 -292 -73 -430 -165 -108 -73 -256 -219 -238
-235 12 -11 195 -70 216 -70 9 0 17 4 17 9 0 22 141 116 267 177 160 77 341
92 530 41 l91 -24 45 96 45 96 -48 23 c-106 50 -347 75 -495 52z"/>
<path d="M4517 2104 c-1 -1 -31 -4 -67 -8 -171 -16 -349 -116 -455 -259 -70
-93 -107 -179 -129 -299 l-5 -28 79 0 c80 0 90 5 90 48 0 8 17 49 37 90 69
140 211 252 360 283 71 14 211 6 272 -16 25 -8 48 -12 52 -8 3 5 13 38 21 76
l15 67 -66 20 c-56 17 -196 41 -204 34z"/>
<path d="M6163 2015 c-150 -41 -261 -180 -271 -339 -3 -56 -1 -74 11 -84 17
-14 150 -72 154 -68 2 2 -4 19 -12 39 -21 51 -19 133 6 187 23 53 66 94 128
122 87 39 226 4 276 -70 l25 -37 0 96 c0 79 -3 99 -17 111 -56 48 -205 69
-300 43z"/>
<path d="M2690 1873 c-65 -10 -180 -47 -230 -74 -56 -30 -110 -73 -110 -88 0
-7 134 -40 185 -46 11 -1 36 4 55 12 102 43 181 51 291 28 46 -9 91 -21 102
-27 10 -5 21 -7 24 -5 2 3 13 37 23 76 l18 71 -26 14 c-50 26 -117 39 -212 41
-52 1 -106 0 -120 -2z"/>
<path d="M4453 1799 c-76 -14 -141 -49 -191 -104 -48 -53 -87 -121 -95 -166
-5 -26 -5 -26 61 -25 l67 1 31 47 c38 59 73 87 131 104 88 27 164 10 238 -50
l41 -34 -1 85 c-1 76 -3 86 -24 102 -47 36 -174 56 -258 40z"/>
<path d="M6895 1749 c-22 -4 -58 -11 -79 -14 -59 -10 -238 -70 -314 -106 -146
-70 -244 -139 -359 -255 -135 -136 -208 -232 -274 -362 -75 -147 -89 -193 -75
-250 6 -26 11 -87 11 -137 0 -95 -8 -118 -67 -216 -28 -47 -35 -74 -20 -83 9
-5 193 42 204 53 3 3 9 35 12 71 4 36 9 77 11 90 3 14 8 39 10 55 68 383 346
715 727 868 122 50 228 75 322 76 53 1 47 -4 188 149 l66 73 -161 -2 c-89 -1
-180 -6 -202 -10z"/>
<path d="M6207 1732 c-30 -18 -40 -41 -39 -86 1 -53 16 -52 102 4 44 29 80 56
80 61 0 17 -46 39 -80 39 -19 0 -47 -8 -63 -18z"/>
<path d="M5357 1544 c-1 -1 -42 -4 -92 -7 -89 -6 -188 -22 -206 -33 -12 -7 -4
-14 101 -93 46 -35 98 -70 115 -77 17 -7 75 -14 129 -15 116 -2 220 -20 319
-56 39 -14 81 -26 93 -27 15 -1 40 22 88 84 l67 85 -50 22 c-126 56 -281 96
-416 108 -75 7 -145 11 -148 9z"/>
<path d="M4485 1523 c-17 -11 -11 -13 45 -13 69 0 74 8 12 20 -27 5 -45 3 -57
-7z"/>
<path d="M6915 1388 c-208 -37 -375 -126 -535 -287 -129 -130 -202 -243 -253
-391 -44 -130 -70 -319 -42 -302 46 26 237 187 244 205 69 177 128 270 220
344 33 26 108 77 168 113 l108 66 87 125 c47 68 84 126 82 128 -8 8 -27 8 -79
-1z"/>
<path d="M5510 1175 c0 -9 42 -44 53 -45 16 0 103 -71 124 -102 l22 -31 26 57
c15 32 25 59 23 60 -2 1 -51 14 -110 29 -59 15 -114 30 -123 33 -8 4 -15 3
-15 -1z"/>
<path d="M5571 194 c-21 -9 -199 -141 -235 -175 -43 -40 129 18 299 101 175
85 175 86 59 85 -53 0 -109 -5 -123 -11z"/>
</g>
</svg>
